<?xml version="1.0" standalone="no"?>
<!DOCTYPE svg PUBLIC "-//W3C//DTD SVG 1.1//EN" "http://www.w3.org/Graphics/SVG/1.1/DTD/svg11.dtd" >
<svg xmlns="http://www.w3.org/2000/svg">
<metadata></metadata>
<defs>
<font id="marteldescentregular" horiz-adv-x="2048" >
<font-face units-per-em="2048" ascent="1638" descent="-410" />
<missing-glyph horiz-adv-x="512" />
<glyph horiz-adv-x="0" />
<glyph horiz-adv-x="0" />
<glyph unicode="&#xd;" horiz-adv-x="0" />
<glyph unicode=" "  horiz-adv-x="512" />
<glyph unicode="&#x09;" horiz-adv-x="512" />
<glyph unicode="&#xa0;" horiz-adv-x="512" />
<glyph unicode="!" />
<glyph unicode="&#x22;" />
<glyph unicode="#" />
<glyph unicode="$" />
<glyph unicode="%" />
<glyph unicode="&#x26;" />
<glyph unicode="'" />
<glyph unicode="(" />
<glyph unicode=")" />
<glyph unicode="*" />
<glyph unicode="+" />
<glyph unicode="," />
<glyph unicode="-" />
<glyph unicode="." />
<glyph unicode="/" />
<glyph unicode="0" />
<glyph unicode="1" />
<glyph unicode="2" />
<glyph unicode="3" />
<glyph unicode="4" />
<glyph unicode="5" />
<glyph unicode="6" />
<glyph unicode="7" />
<glyph unicode="8" />
<glyph unicode="9" />
<glyph unicode=":" />
<glyph unicode=";" />
<glyph unicode="&#x3c;" />
<glyph unicode="=" />
<glyph unicode="&#x3e;" />
<glyph unicode="?" />
<glyph unicode="@" />
<glyph unicode="A" horiz-adv-x="1068" d="M26 6q128 342 384 1028q-10 80 -10 92q0 42 53 42h5q130 18 262 152q22 -16 46 -52q26 -36 26 -52q0 -34 -44 -60q-46 -28 -46 -56q0 -8 18 -106q18 -100 18 -128q102 -280 308 -840q-10 -20 -238 -20q-16 0 -38 78t-68 78q-128 -4 -386 -10q-68 0 -96 -36 q-20 -22 -28 -72q-6 -38 -18 -38h-148zM290 322q39 -28 61 -28h3q58 -2 172 -8q68 4 170 28q-46 148 -186 586q-54 -144 -220 -578z" />
<glyph unicode="B" horiz-adv-x="1126" d="M14 1168q0 42 42 42q78 2 232 8q38 0 38 -34q0 -6 -2 -12q0 -18 4 -56q72 48 144 94q104 58 204 58q92 0 158 -56q68 -58 68 -152q0 -44 -36 -92q-52 -78 -72 -120q122 -30 212 -108q106 -92 106 -198v-146q0 -136 -168 -272q-150 -122 -252 -122h-6q-136 4 -270 6 q-18 4 -172 44q-66 0 -116 -4q-50 -2 -58 -2q-16 0 -16 38q8 108 28 322q-2 150 -6 600q-12 58 -40 112q-22 46 -22 50zM302 790q0 -58 24 -80q324 128 324 268v14q0 56 -34 96q-32 40 -72 40q-104 0 -182 -148q-60 -114 -60 -190zM308 324q0 -74 30 -124q38 -64 110 -64 q234 0 258 4q76 10 106 76q16 38 58 248q4 14 4 26q0 84 -100 152q-90 60 -166 60q-60 0 -146 -42t-154 -102v-234z" />
<glyph unicode="C" horiz-adv-x="944" d="M14 468q4 64 8 190q16 136 110 280q94 142 222 224q156 58 166 58q2 0 8 -2h12q24 0 68 8q98 -42 292 -128q-24 -80 -124 -126q-66 30 -196 90h-118q-70 0 -130 -84q-60 -86 -70 -170q-2 -76 -8 -230q56 -402 266 -402q18 0 46 2t38 2q88 66 264 200q34 6 48 -16 q14 -24 14 -42q0 -92 -166 -210q-154 -106 -222 -106h-146q-130 0 -256 152t-126 310z" />
<glyph unicode="D" horiz-adv-x="1168" d="M18 538q4 52 8 158q104 452 560 532q-46 134 -440 308q-22 8 -42 16q-26 16 -54 54q26 20 74 68q114 -14 470 -76q120 -158 362 -436q122 -138 166 -264q26 -78 26 -98q0 -14 -8 -66q-10 -72 -18 -154q-54 -206 -206 -390q-150 -182 -264 -182q-192 0 -192 -2q0 -1 36 -2 q-18 0 -122 30q-128 36 -244 214q-112 168 -112 290zM274 666q0 -128 98 -296q118 -196 254 -196q112 0 192 84q82 82 94 204q4 40 4 86q0 68 -10 148q1 8 1 17q0 82 -103 225q-118 170 -230 170q-218 0 -294 -254q-2 -62 -6 -188z" />
<glyph unicode="E" horiz-adv-x="1126" d="M20 598q0 10 10 102q0 184 190 370q182 182 352 182h130q76 0 162 -70q104 -80 104 -196q0 -86 -44 -152q-30 -38 -100 -96t-90 -92q80 -6 242 -18q8 0 46 20q38 18 60 18q12 0 22 -6q2 -4 2 -10q0 -32 -42 -84q-50 -64 -86 -64h-656q-20 -20 -20 -40q0 -80 102 -180 t172 -104q128 -7 128 -8h-2q8 0 104 24q70 44 208 132q18 -2 34 -18q16 -18 10 -30q-38 -110 -220 -200q-138 -72 -191 -72h-3h-6q-68 4 -206 14q-124 18 -240 128q-126 124 -146 276q-14 86 -26 174zM278 720q0 -88 42 -100q46 10 136 32q228 66 264 220q2 30 2 54 q0 192 -170 218h-6q-52 0 -152 -106q-108 -114 -108 -190q0 -12 -4 -56q-4 -46 -4 -72z" />
<glyph unicode="F" horiz-adv-x="1126" d="M14 692q4 36 64 126q26 4 110 4q16 0 52 40v470q0 58 -40 166q-16 46 -52 96q-26 36 -24 70h-1q0 -2 199 -2q88 66 266 200h234q48 0 90 -34q12 -10 72 -72q46 -50 128 -148q-12 -20 -54 -42q-40 -20 -62 -20q-95 0 -95 -1l21 -1q-48 2 -64 30q-36 70 -74 140 q-35 40 -139 40h-19q-52 -2 -86 -78q-18 -60 -36 -118q-8 -194 -22 -582q8 -48 8 -76q0 -12 -2 -22v-10t20 -38h440q24 14 92 58q34 -14 34 -32q0 -54 -66 -124q-64 -70 -88 -70q-128 10 -384 28q-12 0 -26 -14q-18 -18 -14 -50q2 -170 8 -508q-4 -66 -6 -76q-6 -36 -30 -36 h-194q-28 0 -40 36q0 100 6 176v434q8 8 8 12q0 8 -20 10h-48q-44 -2 -60 -2q-82 0 -106 20z" />
<glyph unicode="G" horiz-adv-x="1126" d="M30 1074v16q2 38 24 128q14 64 66 176q54 112 92 146q96 90 174 128q48 22 156 54q22 -4 124 -38q92 -30 118 -30q56 0 152 20q108 24 150 28q10 -16 10 -48q-26 -122 -26 -140q-8 -106 -12 -214q10 -248 30 -742q-44 -172 -234 -322q-152 -118 -332 -180 q-110 -38 -144 -44q-32 -8 -124 -8q-52 0 -134 68q-84 68 -84 122q0 4 4 16q6 12 6 42q78 98 238 294q-54 44 -142 174q-98 148 -106 230q-6 86 -6 124zM276 1092q0 -80 72 -218q84 -160 166 -160q106 0 234 78q24 12 52 56q26 38 26 64v6q-4 124 -14 498v6q0 45 -52 94 q-50 46 -78 46h-2q-114 30 -138 30t-120 -24q-44 -12 -86 -88q-36 -64 -44 -106q-6 -44 -14 -90q-2 -8 -2 -192zM314 292q0 -58 32 -98q30 -40 88 -40q112 0 242 96q150 114 150 258q-2 48 -6 188q-64 -30 -254 -118q-210 -120 -242 -216q-10 -36 -10 -70z" />
<glyph unicode="H" horiz-adv-x="1366" d="M34 1546q32 8 122 32q68 -24 82 -24q-6 0 114 16q24 -26 24 -62q0 -8 -8 -24q-10 -14 -10 -24q0 -168 -4 -502q8 6 88 82q64 56 118 86q136 72 256 72q34 0 84 -4q72 -6 164 -92q86 -80 120 -160q38 -92 38 -204q0 -166 -76 -290q-4 -4 -62 -74q-48 -54 -48 -78 q0 -18 20 -44q102 -22 160 -22l86 28q28 -6 28 -42q0 -26 -20 -52q-52 -68 -100 -98q-48 -28 -134 -44q-146 24 -138 24q-4 0 -134 -42q-24 8 -64 20q-20 28 -20 50q0 -6 114 178q112 184 112 256v300q0 74 -98 148q-85 64 -139 64h-3q-192 -10 -290 -174q-20 -30 -42 -96 t-22 -100v-592q6 -20 -46 -20q-58 -2 -170 -8q-36 0 -66 36q6 62 20 184q4 286 8 504q4 186 4 210q0 60 -26 426z" />
<glyph unicode="I" horiz-adv-x="442" d="M40 1518q50 46 146 136q54 -60 216 -236q-8 -24 -76 -64t-82 -40q-24 0 -106 82t-98 122zM70 1130h66q152 0 224 16q6 -8 10 -78q-4 -228 -14 -684q8 -82 30 -328q0 -22 -16 -36q-14 -16 -26 -16h-226q-32 34 -32 52q12 260 36 778q-16 96 -52 296z" />
<glyph unicode="J" horiz-adv-x="442" d="M-238 4q96 124 224 328q130 212 130 263q0 5 -2 9q4 264 8 792q-16 98 -52 296q-2 0 66 0q152 0 224 16q6 -8 10 -78q-4 -228 -14 -684q8 -82 30 -328q0 -22 -16 -36q-14 -14 -26 -14q-154 -188 -460 -564h-122zM40 2080q50 46 146 136q54 -58 216 -236q-8 -24 -76 -64 t-82 -40q-24 0 -106 82t-98 122z" />
<glyph unicode="K" horiz-adv-x="1258" d="M24 1122q8 42 38 40q49 -2 83 -2q52 0 71 4q40 10 66 10q18 0 30 -18t12 -34q-10 -190 -28 -570q4 -1 8 -1q55 0 196 153q80 84 264 308q140 170 154 170q24 0 92 -16q86 -18 88 -38q-158 -158 -474 -476q50 -32 98 -64q64 -48 102 -110q114 -192 146 -230 q46 -54 132 -74q26 10 76 32q14 -14 54 -62q-8 -58 -108 -102q-84 -36 -154 -36h-90q-66 0 -146 112q-68 104 -136 210q-82 112 -158 112q-40 0 -90 -34q-48 -36 -48 -78q0 -157 -1 -157l-1 9q2 -12 24 -106q-8 -24 -48 -40q-26 -12 -38 -12q-164 0 -174 2v968 q-10 34 -40 130z" />
<glyph unicode="L" horiz-adv-x="818" d="M46 1546q28 8 118 32q68 -24 82 -24q-6 0 114 16q26 -24 26 -57q0 -11 -26 -39t-26 -38l18 -1170q-2 -24 18 -52q20 -26 46 -26q10 0 120 16q112 18 122 18q26 0 144 -76q-18 -30 -86 -86q-64 -56 -88 -56h-2l-270 60q-58 -16 -234 -60q-12 4 -24 24q-14 22 -8 48 q6 86 20 260q-4 250 -20 998q-12 52 -44 212z" />
<glyph unicode="M" horiz-adv-x="2054" d="M-2 1128q0 34 40 38h-1q0 -2 275 -2q2 -9 2 -30t-2 -54q-6 -78 -6 -84q16 -22 30 -22q-1 0 -1 1q0 7 107 93q118 94 196 96q42 12 182 14q58 0 142 -100q50 -60 98 -120l252 186q66 16 134 36q12 2 116 4h4q116 0 238 -136q124 -140 124 -284v-152q-44 -88 -172 -350 q40 -54 80 -54q90 0 122 8t50 8q14 0 30 -16q18 -16 18 -28q0 -44 -98 -106q-86 -54 -116 -58q-80 -8 -146 -8q-140 0 -220 36q12 30 114 230q66 136 84 216q18 92 18 136q0 48 -42 200q-22 54 -68 114q-66 84 -124 84h-96q-76 0 -172 -116q-94 -116 -96 -204 q-6 -96 -14 -290q10 -84 44 -330q-2 -26 -22 -44q-18 -18 -34 -16q-74 -2 -218 -8q-6 0 -26 16t-24 32q12 88 32 266v488q0 100 -80 160q-70 54 -150 54q-104 0 -206 -160q-90 -142 -90 -234v-376q6 -50 30 -196q-22 -50 -50 -50q-146 0 -140 0q-80 6 -96 48q-6 18 -6 40 q6 42 22 124q2 120 10 480q-4 70 -18 278q-4 36 -34 88q-26 48 -26 54z" />
<glyph unicode="N" horiz-adv-x="1360" d="M40 1134q0 22 34 38q204 4 276 4q4 -24 14 -76q0 -10 -8 -42q-10 -30 -10 -50q0 -24 14 -44q18 10 274 180q54 36 126 36q14 0 72 -2h110q46 0 126 -70q64 -58 104 -114q58 -80 62 -312v-7q0 -134 -208 -415q0 -6 4 -12q12 -10 68 -26t70 -16q30 0 148 18q2 -10 2 -22 q0 -66 -74 -132q-70 -64 -132 -64h-4h-4q-58 10 -176 34q-30 -8 -116 -34q-16 4 -60 18q68 120 132 242q82 148 104 286q-2 78 -2 154q-6 70 -32 134q-38 104 -104 150q-12 8 -92 46q-10 4 -30 4q-34 0 -98 -12q-40 -8 -98 -48q-76 -50 -98 -106q-56 -132 -60 -142 q-4 -16 -32 -190q12 -156 36 -466q0 -38 -32 -52h-236q-14 18 -18 26q-2 6 0 10q4 4 4 8v840q-14 56 -56 226z" />
<glyph unicode="O" horiz-adv-x="1244" d="M14 638q0 22 6 48q10 36 16 82q22 180 180 330q130 124 266 158q44 6 132 16q164 0 216 -28l92 -46q62 -34 96 -76q58 -60 110 -148q70 -110 76 -170q6 -50 12 -84q6 -26 6 -38q0 -16 -16 -138q-20 -174 -176 -336q-156 -160 -330 -186l-138 -18q-2 0 -146 28t-266 196 q-114 156 -130 316q-6 66 -6 94zM268 638q0 -150 144 -312t266 -162q16 0 50 10q34 8 62 8q60 36 116 112q56 78 60 132q4 64 8 192q-56 286 -160 384q-30 28 -60 58q-38 30 -88 50q-50 18 -76 20h1h-91q-60 0 -144 -76q-88 -84 -88 -152v-264z" />
<glyph unicode="P" horiz-adv-x="1158" d="M26 1654v4q0 28 34 46q34 -8 106 -24q22 8 78 10q56 4 88 12v-166q96 64 188 136q46 34 74 38q6 2 142 2q112 0 242 -126q132 -126 144 -244l16 -120q0 -8 -8 -106q-28 -156 -110 -296q-96 -168 -236 -246q-116 -66 -214 -66q-68 0 -206 38h-8q-16 -14 -26 -30q4 4 4 -14 v-260q0 -90 34 -142q36 -52 34 -68q-24 -10 -70 -28q-78 18 -155 18q-52 0 -103 -8v1442q-12 50 -48 198zM324 998q0 -18 12 -182q16 -80 22 -96q22 -66 62 -80q30 -10 80 -10q114 0 180 60q132 128 172 302q8 54 24 166q-14 132 -20 166q-18 106 -64 150q-40 40 -82 60 q-42 18 -92 18q-78 0 -150 -48q-72 -50 -108 -128q-12 -24 -20 -76q-6 -50 -12 -66q-3 -245 -4 -245v9z" />
<glyph unicode="Q" horiz-adv-x="1126" d="M16 940q4 70 8 210q-1 7 -1 15q0 112 139 305q158 224 298 224q64 0 118 2t60 2q28 0 56 -12q58 -28 114 -58q4 0 16 8q14 8 24 8q226 0 252 -4q-8 -58 -24 -176q-2 -466 -16 -752q-11 -255 -12 -255v1q0 -62 36 -324q2 -8 14 -38q14 -28 14 -36v-56h-294q-16 0 -30 14 t-14 28q0 8 8 26t8 26l12 528q-56 -16 -156 -84q-80 -58 -200 -58q-32 0 -74 4q-132 12 -238 162q-98 132 -118 290zM278 1116l16 -176q58 -248 196 -278q54 2 166 8q86 0 134 128q31 83 31 131q0 10 -1 19q7 224 8 224v-2q0 14 -14 212q-8 76 -110 140q-90 56 -166 56 q-138 -16 -182 -76q-20 -30 -70 -204q-8 -184 -8 -182z" />
<glyph unicode="R" horiz-adv-x="1300" d="M24 1134q132 18 282 34q2 -50 10 -152q108 68 216 134q82 46 160 46q54 0 140 -18q94 -18 176 -90q94 -86 104 -196q2 -22 8 -68q-4 -160 -128 -276q-72 -70 -226 -146q-36 -18 -36 -34q0 -50 186 -140q168 -82 192 -82q12 0 72 16q62 14 74 18q24 -28 24 -62 q0 -30 -98 -74q-90 -40 -118 -40h-136q-148 0 -280 78q-70 42 -188 144q-86 78 -122 78q-18 0 -32 -22q-2 -88 -2 -264h-264q19 302 19 632q0 127 -3 258q-10 76 -30 226zM284 484q0 -26 26 -42q16 -14 26 -14q160 14 198 24q68 16 94 20q52 6 132 104q82 96 82 148v168 q0 34 -48 86q-40 43 -63 43q-4 0 -7 -1q-80 18 -82 18q2 0 -90 -18q-214 -70 -250 -354q-6 -54 -16 -166q-2 -8 -2 -16z" />
<glyph unicode="S" horiz-adv-x="872" d="M34 198q12 74 36 220q68 -28 114 -94q58 -74 92 -98q76 -48 228 -60q148 40 148 198q0 144 -224 208q-180 24 -260 80q-94 70 -94 222q0 62 18 138q16 76 132 162q108 80 172 80q92 0 92 1l-6 1q48 -2 98 -26h6q36 0 102 -46q66 -44 90 -78l-90 -102q-102 118 -244 118 q-70 0 -118 -34q-58 -40 -58 -116q0 -54 62 -92q50 -30 92 -32q192 -46 248 -68q94 -42 130 -128q38 -86 38 -276q0 -102 -96 -198q-76 -76 -190 -132q-82 -42 -118 -42q-6 0 -10 2q-54 8 -162 26q-8 6 -146 70q-82 38 -82 96z" />
<glyph unicode="T" horiz-adv-x="1126" d="M26 1032q0 38 42 100q40 62 64 62q80 -2 242 -8q78 0 94 10q6 2 40 54q42 60 128 126q51 -9 96 -9q15 0 30 1q-22 -60 -64 -182h234l144 32q18 -36 18 -48q0 -22 -40 -86q-38 -64 -54 -72q-44 12 -130 32h-304q-24 -80 -98 -320q0 -262 4 -280q10 -130 68 -188 q72 -70 240 -70q36 0 158 108q62 54 120 110q42 -36 42 -68q0 -100 -176 -222q-160 -110 -234 -110q-322 0 -416 176q-68 128 -68 520q36 94 106 278q-25 67 -68 67q-5 0 -10 -1q-58 -18 -170 -58q-38 6 -38 46z" />
<glyph unicode="U" horiz-adv-x="1308" d="M56 470q0 20 2 34q10 58 18 114q56 126 166 382q-2 10 -6 22q-2 12 -26 12q-30 4 -58 8q-38 12 -38 50q0 10 20 44t32 34q150 -24 148 -24l258 24q4 -16 16 -68q-16 -26 -112 -124q-90 -90 -112 -138q-20 -48 -42 -98q-28 -76 -28 -164q2 -34 8 -102q16 -80 70 -164 q56 -84 106 -104l180 -18q48 0 166 90q130 102 130 188q0 336 1 336l1 -50q0 28 -16 196q1 8 1 16q0 41 -17 86q-36 86 -38 90q14 10 34 28h280q24 -20 42 -66q-12 -70 -32 -212v-682q12 -46 46 -184q-70 -4 -280 -12q-40 0 -40 52q0 10 2 34t2 36q0 54 -26 78 q-166 -168 -316 -190q-38 -6 -64 -14q-16 -6 -22 -6t-148 20q-110 14 -200 122q-88 108 -102 238q-6 50 -6 86z" />
<glyph unicode="V" horiz-adv-x="1176" d="M38 1144q0 14 26 40q78 -6 134 -14q46 -6 54 -6q12 0 94 20q34 -6 54 -94q106 -546 232 -754q46 98 136 298q58 132 154 400q-2 44 -2 90q2 58 66 58q58 0 152 -26q-106 -262 -424 -1050q-2 -20 -8 -76q-24 -2 -94 -14q-60 -10 -94 -10t-64 8q-16 4 -40 92 q-40 158 -134 474q-34 118 -70 234q-46 150 -92 232q-28 24 -78 84q-2 -6 -2 14z" />
<glyph unicode="W" horiz-adv-x="1766" d="M40 1148q0 12 76 16q29 1 67 1t85 -1q34 -2 82 -4q10 -36 26 -88q42 -196 150 -534q20 -74 44 -148q30 -94 58 -98q70 192 208 578q-26 72 -102 284q28 14 90 16h30q65 0 166 6q84 -278 254 -836q22 12 84 178q48 136 98 270q2 4 60 192q40 132 84 188q104 2 140 8 q-56 -202 -208 -588q-136 -342 -156 -448q-8 -41 -8 -77q0 -31 6 -57h-288q-8 0 -10 42v106q-40 114 -160 454q-94 -166 -156 -344q-51 -145 -51 -225q0 -18 3 -33h-256q-20 42 -68 206q-58 194 -86 274q-54 166 -178 494q-26 48 -84 168z" />
<glyph unicode="X" horiz-adv-x="1166" d="M-78 54q2 46 504 602q-84 200 -182 340q-58 82 -134 156q-52 50 -52 68q0 50 10 72q198 -24 194 -24q38 0 112 14q194 -382 246 -382q2 0 84 104q98 120 170 192q106 102 164 102q20 0 44 -20q22 -22 22 -46q0 -8 -2 -14q-100 -98 -200 -194q-192 -186 -192 -246 q0 -38 152 -296q30 -52 132 -188l94 -128q0 -40 -36 -40h-286l-232 440q-124 -142 -250 -286q-176 -200 -294 -272q-4 -2 -10 -2q-22 0 -58 48z" />
<glyph unicode="Y" horiz-adv-x="1158" d="M8 1646q6 18 16 58h306q18 -50 126 -406q88 -294 158 -420h4q33 0 54 58q22 60 44 124q66 178 132 354q104 278 124 278q2 0 44 -4q42 -6 72 -6q36 0 60 8v-60q0 -2 -186 -404q-198 -430 -248 -570q-50 -154 -104 -308q-32 -82 -98 -134q-4 -4 -258 -168 q-58 -14 -174 -40q-42 12 -42 48q0 22 26 82q28 70 56 76q58 -18 62 -18q-6 0 76 0q200 234 200 352q0 20 -164 402l-120 370q-80 246 -166 328z" />
<glyph unicode="Z" horiz-adv-x="1010" d="M24 56q184 324 550 970h-328q-40 -16 -162 -64q-36 12 -36 114q0 20 58 56q58 34 116 34q24 0 46 -8q18 1 44 1q52 0 138 -3q156 -2 216 -2q174 0 246 18q32 -16 42 -64l-540 -900q12 -14 34 -12q94 4 173 4q143 0 239 -12q28 12 106 40q20 -16 20 -48q0 -58 -124 -114 q-76 -34 -128 -46q-144 6 -270 12q-94 4 -116 4q-30 0 -282 -30q-36 0 -42 50z" />
<glyph unicode="`" horiz-adv-x="340" d="M32 1102l128 -128q24 -50 100 -204q10 12 44 48q-16 58 -60 234q10 16 40 58q-32 32 -130 124q-30 -32 -122 -132z" />
<glyph unicode="a" horiz-adv-x="970" d="M22 14q118 280 350 842q-10 68 -10 76q0 36 54 36q116 12 240 124q64 -50 64 -86q0 -28 -40 -50q-42 -22 -42 -46q0 -6 16 -86q16 -82 16 -106q92 -234 278 -704q-34 0 -102 -4t-102 -4q-32 0 -50 68q-20 68 -56 68q-116 -2 -352 -8q-58 0 -82 -32q0 -2 -20 -64 q-10 -32 -44 -32q-58 0 -118 8zM262 260q37 -22 57 -22h3q78 -4 138 -4q138 0 170 20l-168 480q-50 -120 -200 -474z" />
<glyph unicode="b" horiz-adv-x="1024" d="M14 960q0 34 38 34l210 6q34 0 34 -26q0 -6 -4 -10q2 -14 8 -44q62 36 128 72q94 50 186 50q84 0 144 -48q62 -46 62 -122q0 -34 -32 -76q-48 -64 -66 -96q110 -26 194 -90q94 -76 94 -164v-116q0 -114 -152 -226q-134 -98 -226 -98h-8q-122 2 -248 6q-16 0 -154 34 q-60 0 -82 -6q-24 -8 -32 -8q-14 0 -38 16q-22 14 -22 26q8 86 28 262q-2 122 -8 490q-10 50 -32 90q-22 42 -22 44zM272 650q0 -48 24 -64q294 104 294 218v12q0 46 -28 76q-32 36 -66 36q-96 0 -166 -122q-58 -94 -58 -156zM280 268q0 -60 28 -102q34 -52 100 -52 q212 0 236 2q66 10 94 64q16 32 54 202q2 12 2 22q0 70 -92 126q-80 50 -150 50q-122 0 -272 -120v-192z" />
<glyph unicode="c" horiz-adv-x="858" d="M12 384q2 54 6 158q16 112 102 228q84 118 202 184q136 46 150 48q40 2 78 4q90 -36 268 -106q-22 -64 -114 -102q-58 26 -178 74h-106q-64 0 -118 -70q-54 -68 -64 -138l-6 -192q48 -326 242 -326q16 0 40 2t34 2q80 54 240 164q30 6 44 -14t14 -34q0 -76 -154 -172 q-136 -88 -198 -88h-136q-116 0 -232 124q-114 126 -114 254z" />
<glyph unicode="d" horiz-adv-x="1060" d="M16 440q4 42 8 128q92 372 508 434q-40 114 -400 256q-20 6 -38 12q-24 12 -48 44q24 18 68 56q104 -14 426 -62q110 -130 330 -356q108 -116 150 -220q24 -62 24 -80q0 -10 -8 -52q-8 -60 -16 -128q-52 -168 -188 -318q-136 -148 -240 -148q-174 0 -174 -2q0 -1 32 -2 q-16 2 -110 24q-116 28 -224 176q-100 138 -100 238zM248 544q0 -106 92 -244q104 -158 230 -158q100 0 174 68q74 66 86 166q4 30 4 62q0 60 -12 130q1 8 1 16q0 68 -89 184q-110 138 -212 138q-198 0 -266 -206q-2 -52 -8 -156z" />
<glyph unicode="e" horiz-adv-x="1024" d="M18 486q0 8 8 82q0 152 172 304q166 150 322 150h116q70 0 148 -56q96 -68 96 -162q0 -72 -42 -124q-24 -34 -90 -80q-64 -48 -82 -74q74 -6 220 -16q6 0 42 16q34 16 56 16q10 0 18 -4q2 -6 2 -12q0 -26 -38 -68q-44 -50 -78 -50h-598q-18 -18 -18 -34q0 -66 96 -150 q90 -78 154 -84q118 -5 118 -6h-2q8 0 96 22q62 36 188 108q40 -4 40 -42q0 -42 -154 -134q-140 -82 -170 -82l-246 6q-114 14 -218 106q-114 98 -134 224q-12 72 -22 144zM252 588q0 -74 38 -84q42 8 124 26q208 56 242 180q2 24 2 46q0 158 -156 178h-6q-48 0 -138 -88 q-98 -92 -98 -156q0 -8 -4 -46q-4 -36 -4 -56z" />
<glyph unicode="f" horiz-adv-x="1024" d="M14 566q6 78 56 106q32 16 52 16q12 0 26 -8q14 -6 22 -6q16 0 50 32v388q-2 44 -38 134q-14 36 -46 78q-24 28 -24 58q21 5 54 5q17 0 36 -1l90 -6q82 54 242 166h212q44 0 84 -30q10 -8 62 -58q46 -42 118 -122q-8 -16 -46 -34q-38 -16 -58 -16q-4 0 -44 -4 q-30 -2 -46 2q-24 4 -36 24q-14 32 -44 88q-32 44 -74 56q-21 4 -62 4h-30q-48 0 -78 -64q-18 -50 -36 -96q-6 -160 -20 -478q8 -38 8 -64v-16q-2 -8 -2 -10q0 -8 20 -30h400q20 12 82 48q32 -14 32 -28q0 -44 -58 -100q-60 -56 -82 -56q-116 8 -348 20q-10 0 -24 -10 q-18 -14 -14 -40q2 -140 6 -418q-4 -92 -30 -92h-176q-26 0 -40 30q0 82 10 144v356q12 12 -14 14q-16 2 -60 -2q-56 -2 -74 -2q-24 0 -58 22z" />
<glyph unicode="g" horiz-adv-x="1024" d="M28 882v12q2 32 22 106q14 52 60 140q50 96 84 126q86 70 156 102q46 18 146 42q18 -2 106 -26q88 -26 110 -26q52 0 138 16q100 20 138 22q10 -14 10 -40q-26 -96 -28 -114l-8 -176q10 -202 28 -608q-40 -140 -214 -264q-138 -98 -300 -148q-102 -32 -130 -36 q-30 -4 -114 -4q-48 0 -122 56q-76 54 -76 98q0 4 4 14q2 10 2 34q74 80 220 240q-52 38 -130 144q-92 120 -96 188q-6 70 -6 102zM252 896q0 -64 66 -180q76 -130 148 -130q100 0 214 64q22 12 50 48q22 30 22 50v6q-4 102 -14 410v6q0 33 -44 72q-46 40 -73 40h-3 q-104 24 -124 24t-108 -20q-42 -10 -80 -72q-34 -52 -40 -88q-6 -34 -12 -72q-2 -6 -2 -158zM284 242q0 -114 112 -114q102 0 218 78q138 92 138 212q-2 38 -6 154q-58 -24 -232 -98q-188 -98 -220 -178q-10 -28 -10 -54z" />
<glyph unicode="h" horiz-adv-x="1242" d="M32 1268q28 6 110 28q60 -22 74 -22q-6 0 104 14q22 -22 22 -52q0 -6 -8 -18t-8 -20q-2 -138 -4 -412q52 50 186 138q124 60 234 60q30 0 76 -4q66 -4 150 -76q78 -64 110 -130q34 -76 34 -168q0 -136 -70 -238q-2 -4 -56 -62q-44 -42 -44 -62q0 -16 20 -36 q90 -18 144 -18l80 22q22 -4 22 -32q0 -24 -16 -44q-50 -56 -92 -80q-44 -24 -124 -38q-130 20 -122 20q-6 0 -122 -32q-24 4 -58 16q-18 22 -18 42q0 -6 102 144t102 212v244q0 60 -88 122q-79 52 -125 52h-3q-178 -8 -268 -142q-56 -84 -56 -162v-484q6 -18 -44 -18 q-50 -2 -154 -6q-30 0 -58 28q6 52 18 152q4 234 8 414q4 152 4 172q0 50 -24 348q-12 42 -38 128z" />
<glyph unicode="i" horiz-adv-x="402" d="M36 1246q46 38 134 112l194 -194q-6 -20 -72 -54q-56 -34 -70 -34q-24 0 -98 68q-72 68 -88 102zM64 928h58q140 0 206 14q4 -8 10 -66q-4 -186 -14 -560q6 -66 26 -270q0 -40 -36 -40h-208q-28 26 -28 40q12 214 34 640q-16 80 -48 242z" />
<glyph unicode="j" horiz-adv-x="402" d="M-142 4q0 8 114 200q107 180 107 234q0 4 -1 8q12 212 34 636q-16 80 -48 244q-2 0 58 0q140 0 206 12q4 -6 10 -62q-4 -186 -14 -560q6 -68 26 -270q0 -42 -36 -42q-122 -132 -366 -400h-90zM36 1642q46 36 134 110q48 -48 194 -192q-6 -20 -72 -56q-56 -32 -70 -32 q-24 0 -98 68q-72 68 -88 102z" />
<glyph unicode="k" horiz-adv-x="1142" d="M22 920q8 34 34 34q56 -2 91 -2t49 2q38 6 62 6q36 0 36 -40l-24 -468q3 -1 6 -1q67 0 302 253q248 262 256 262q22 0 84 -10q80 -14 80 -30q-144 -130 -430 -392q44 -26 90 -52q58 -38 92 -88q102 -158 132 -190q42 -44 120 -62q22 8 70 26l48 -48q-8 -48 -98 -84 q-76 -30 -140 -30h-82q-60 0 -132 90l-124 172q-76 92 -142 92q-40 0 -80 -26q-48 -28 -48 -66q0 -127 -1 -127l-1 7q0 -10 22 -88q-8 -18 -42 -30q-24 -12 -34 -12q-150 0 -160 2v794q-10 26 -36 106z" />
<glyph unicode="l" horiz-adv-x="650" d="M26 1346q0 16 30 40l56 48h16q38 0 134 6q54 -66 54 -116q-6 -140 -16 -420q2 -172 14 -682q-2 -20 14 -42q18 -22 42 -22q8 0 60 14q52 12 60 12q24 0 132 -60q-18 -26 -80 -72q-58 -46 -80 -46h-2q-48 16 -144 50q-54 -12 -212 -50q-10 2 -22 20t-8 40q4 64 14 190 q-6 230 -20 922q-14 62 -42 168z" />
<glyph unicode="m" horiz-adv-x="1868" d="M-2 924q2 10 6 16q10 14 32 14h-1h249q2 -8 2 -25t-2 -43q-6 -66 -6 -70q14 -20 28 -20q-1 0 -1 1q0 6 97 77q106 78 180 80q38 8 164 8h3q51 0 127 -78l88 -100q78 52 230 154q60 12 120 26q12 2 108 6h2q106 0 216 -112q114 -114 114 -234v-124q-40 -72 -158 -284 q36 -46 74 -46q82 0 110 8q30 6 44 6q16 0 30 -14q16 -14 16 -24q0 -36 -90 -86q-78 -44 -104 -48q-72 -6 -134 -6q-126 0 -198 30q12 24 102 188q62 110 76 176q16 78 16 112q0 40 -36 166q-22 44 -64 92q-60 68 -112 68h-86q-70 0 -158 -94q-86 -94 -86 -168 q-6 -80 -16 -238q12 -68 42 -270q-2 -20 -18 -36t-34 -12q-64 -2 -196 -8q-6 0 -24 14t-20 24q8 72 26 218v402q0 80 -72 132q-64 44 -136 44q-96 0 -188 -130q-82 -118 -82 -194v-306q8 -42 28 -162q-22 -42 -44 -42q-136 0 -128 0q-74 6 -88 40q-8 14 -8 32q8 34 22 102 q2 98 10 394q-4 56 -16 228q-4 30 -30 70q-26 42 -26 46z" />
<glyph unicode="n" horiz-adv-x="1236" d="M36 930q0 18 32 30q184 6 250 6q4 -20 14 -62q0 -8 -8 -34t-8 -42q0 -20 12 -38q94 52 234 140q54 34 96 36h-1h199q42 0 114 -58q60 -48 94 -90q54 -68 58 -258q4 -110 -190 -344q0 -6 8 -12q8 -8 58 -22q50 -12 62 -12q30 0 136 14q4 -8 4 -18q0 -54 -68 -108 q-64 -52 -120 -52h-8q-54 10 -160 28q-26 -8 -106 -28q-14 4 -54 14l120 200q74 122 94 232q0 64 -4 128q-4 58 -26 110q-34 84 -94 124q-12 6 -86 36q-9 4 -28 4q-30 0 -86 -10q-38 -8 -90 -38q-68 -42 -90 -88q-50 -108 -54 -116q-4 -14 -28 -156q10 -126 32 -382 q0 -32 -28 -44h-216q-14 16 -16 22t0 8q4 4 4 8v688q-12 46 -52 184z" />
<glyph unicode="o" horiz-adv-x="1130" d="M12 526q0 14 2 22q18 78 18 84q20 146 162 268q122 102 244 130q40 4 122 14q146 0 192 -22q44 -20 86 -38q54 -28 88 -62q50 -50 100 -122q64 -88 70 -142q4 -38 10 -68q6 -20 6 -30q0 -14 -14 -112q-20 -144 -162 -276t-300 -150l-126 -18l-132 24q-130 22 -240 160 q-106 128 -120 260q-6 52 -6 78zM244 522q0 -122 130 -254t242 -132q16 0 46 6q30 8 56 8q54 28 106 92q50 64 54 108q4 54 8 158q-52 234 -146 314q-28 24 -54 46q-34 28 -82 44q-46 16 -152 16q-52 0 -130 -66t-78 -122v-218z" />
<glyph unicode="p" horiz-adv-x="1052" d="M24 1352v4q2 22 32 38q32 -8 96 -20q44 4 150 20v-138q104 68 206 134q20 10 162 10q100 0 220 -102q120 -104 132 -202q6 -46 12 -96q0 -8 -6 -88q-26 -126 -100 -244q-88 -136 -216 -200q-104 -54 -194 -54q-62 0 -186 30h-8q-14 -12 -24 -24q4 4 4 -12v-212 q0 -74 30 -118q32 -42 30 -54q-20 -8 -62 -24q-75 15 -148 15q-43 0 -86 -5v1182q-12 40 -44 160zM292 816q0 -16 14 -150q16 -66 20 -78q22 -54 56 -66q28 -10 72 -10q106 0 162 52q122 104 160 246q8 46 20 138q-12 108 -18 134q-16 88 -60 124q-34 32 -72 48 q-40 16 -82 16q-72 0 -140 -40q-66 -42 -96 -104q-10 -22 -18 -62q-6 -42 -14 -56q-3 -200 -4 -200v8z" />
<glyph unicode="q" horiz-adv-x="1024" d="M14 774q2 56 6 170v11q0 93 126 253q144 182 272 182q58 0 108 2t54 2q22 0 156 -58q2 0 12 8q12 8 22 8q204 0 230 -4l-24 -144q-4 -384 -14 -618q-9 -211 -10 -211v1q0 -48 32 -264q2 -8 14 -30q12 -24 12 -32v-44h-268q-40 0 -40 34q0 6 8 22q6 16 6 22q4 144 14 432 q-54 -12 -144 -70q-72 -48 -180 -48q-32 0 -68 4q-120 10 -218 132q-88 110 -106 240zM252 920q0 -2 14 -146q54 -204 178 -230q50 4 150 8q80 0 122 106q29 65 29 105q0 9 -1 17q7 184 8 184v-2q0 12 -14 174q-6 64 -100 114q-80 46 -150 46q-126 -14 -164 -64 q-20 -22 -64 -164q-8 -150 -8 -148z" />
<glyph unicode="r" horiz-adv-x="1182" d="M22 932q120 14 256 28q4 -42 8 -124q100 54 200 110q72 36 142 36q50 0 128 -14q86 -16 160 -76q86 -66 96 -160l6 -54q-2 -132 -116 -228q-66 -54 -206 -118q-32 -14 -32 -30q0 -40 170 -114q152 -66 174 -66q12 0 66 12q54 14 64 16q24 -24 24 -52q0 -24 -90 -60 q-80 -32 -106 -32h-124q-136 0 -256 64q-62 32 -168 118q-78 64 -112 64q-18 0 -32 -18q0 -74 -2 -218h-238q18 256 18 539q0 94 -2 191q-10 62 -28 186zM258 400q0 -20 18 -34q18 -12 30 -12q144 8 182 16q60 14 84 18q46 8 120 86t74 122v136q0 30 -44 72q-37 37 -57 37 q-3 0 -5 -1q-74 12 -76 12q-42 -6 -82 -12q-194 -60 -228 -292q-4 -44 -14 -134q-2 -8 -2 -14z" />
<glyph unicode="s" horiz-adv-x="792" d="M30 164q12 60 34 180q58 -22 104 -76q52 -60 84 -82q68 -38 204 -50q134 34 134 164q0 118 -200 172q-166 18 -236 62q-88 58 -88 184q0 50 16 112q16 64 120 136q100 64 156 64q122 0 168 -20h3q34 0 93 -36q64 -40 84 -66q-26 -28 -82 -82q-92 96 -220 96 q-64 0 -110 -28q-50 -36 -50 -94q0 -46 56 -76q44 -28 82 -28q242 -50 298 -96q82 -70 82 -290q0 -84 -88 -164q-70 -62 -172 -106q-76 -34 -106 -34h-10q-50 8 -148 22q-6 4 -132 56q-76 34 -76 80z" />
<glyph unicode="t" horiz-adv-x="1024" d="M24 846q0 32 38 82q36 52 56 52q76 -2 224 -6q82 0 100 24q52 72 138 134q48 -11 89 -11q12 0 23 1q-18 -48 -58 -148h212q32 6 130 26q18 -30 18 -40q0 -18 -36 -70q-34 -52 -48 -60q-40 8 -120 26h-276q-22 -64 -88 -262q0 -214 2 -228q10 -108 64 -154q66 -58 216 -58 q34 0 144 88q56 46 110 90q38 -30 38 -54q0 -82 -160 -184q-146 -90 -214 -90q-290 0 -376 146q-62 102 -62 424q32 76 94 230q-22 53 -62 53q-4 0 -8 -1q-50 -14 -154 -46q-34 4 -34 36z" />
<glyph unicode="u" horiz-adv-x="1190" d="M52 376q0 20 2 34q8 48 16 94l150 312q0 8 -4 18q-4 12 -24 12q-28 2 -54 6q-34 8 -34 40q0 8 18 38q18 28 30 28l132 -20l234 18q4 -14 16 -54q-16 -22 -102 -104q-82 -74 -100 -112q-18 -40 -40 -80q-24 -62 -24 -134q2 -28 6 -86q14 -64 64 -130q52 -66 96 -82 q54 -6 164 -14q46 0 152 68q118 82 118 152q0 277 1 277l1 -41q0 20 -16 160q1 7 1 14q0 32 -15 70q-32 72 -34 74q14 8 30 22h256q20 -16 36 -54q-10 -58 -28 -174v-558q10 -38 40 -146q-62 -4 -252 -16q-36 0 -36 44q0 8 2 28v28q0 44 -22 64q-146 -130 -288 -150 q-36 -6 -54 -12q-18 -4 -26 -4q-4 0 -132 16q-100 12 -182 98q-80 86 -94 190q-4 38 -4 66z" />
<glyph unicode="v" horiz-adv-x="1070" d="M34 938q0 12 24 36q72 -8 122 -14q42 -4 50 -4q10 0 86 18q30 -4 46 -78q96 -450 212 -620q40 82 122 244q54 110 142 328q-2 38 -2 74q2 50 58 50q54 0 140 -24q-96 -214 -384 -860l-8 -64q-24 -2 -86 -10q-54 -8 -84 -8q-34 0 -58 6q-16 4 -38 76q-36 130 -120 390 q-32 96 -66 192q-40 120 -82 188q-26 20 -72 70q-2 -4 -2 10z" />
<glyph unicode="w" horiz-adv-x="1606" d="M30 942q0 16 96 16q76 0 190 -8q14 -12 28 -50q14 -118 56 -242q38 -108 78 -214l40 -124q26 -78 54 -80q62 158 188 476q-24 56 -98 228q28 14 104 14h20q106 0 138 6q78 -228 234 -682q22 8 76 144q46 112 92 222q4 8 50 154q36 108 74 156q96 0 126 6 q-50 -166 -186 -482q-118 -278 -138 -366q-7 -34 -7 -63q0 -25 5 -47h-262q-10 0 -10 34v88q-36 92 -146 372q-86 -134 -140 -282q-46 -120 -46 -186q0 -14 2 -26h-232q-40 30 -76 162q-52 194 -66 232q-50 136 -164 402q-16 32 -30 68q-20 40 -48 68q-2 2 -2 4z" />
<glyph unicode="x" horiz-adv-x="1058" d="M-70 42q0 42 458 494q-74 154 -164 266q-50 66 -124 136q-46 46 -46 60q0 42 8 60q76 -8 150 -18h14q44 0 114 10q10 -10 108 -170q84 -144 118 -144q-1 0 -1 1q0 9 149 163q158 164 230 164q18 0 40 -18q20 -18 20 -36q0 -6 -2 -12q-90 -78 -182 -158 q-172 -154 -172 -202q0 -32 136 -244q12 -18 204 -258q0 -34 -32 -34h-260q-52 90 -210 362q-112 -122 -222 -248q-158 -172 -272 -210q-4 -2 -8 -2q-22 0 -54 38z" />
<glyph unicode="y" horiz-adv-x="1052" d="M8 1352q4 16 14 48h278q18 -42 116 -334q80 -242 144 -344h4q28 0 48 46q20 50 40 102q58 144 118 290q96 228 114 228h-4q0 -1 72 -6q23 -2 42 -2q31 0 50 6v-50q0 -2 -168 -330q-182 -352 -224 -466q-48 -128 -94 -252q-32 -70 -92 -110q-4 -4 -234 -138 q-54 -12 -160 -34q-38 10 -38 40q0 20 24 68q26 54 52 60q54 -14 56 -14q-6 0 70 0q182 192 182 290q0 16 -150 330l-110 304q-72 202 -150 268z" />
<glyph unicode="z" horiz-adv-x="918" d="M22 48l498 798h-296q-38 -14 -148 -54q-32 10 -32 94q0 18 48 40q62 26 152 28q2 0 300 -4h45q173 0 239 14q30 -12 40 -54q-164 -244 -492 -734q12 -12 32 -12q92 4 168 4q122 0 206 -10q24 10 96 34q16 -14 16 -42q0 -46 -112 -94q-68 -26 -114 -36q-132 4 -244 10 q-88 4 -106 4q-30 0 -258 -26q-32 0 -38 40z" />
<glyph unicode="&#xc4;" horiz-adv-x="1024" d="M-6 46q0 -2 184 350q190 362 212 464q-14 26 -14 48q0 54 82 54q16 0 30 -2l234 96q56 -8 56 -48q0 -16 -44 -48t-52 -46l348 -900q-18 -20 -44 -20q-10 0 -40 6q-32 6 -58 6q-36 -2 -74 -14q-34 10 -60 80q-22 64 -48 64q-74 -4 -224 -12q-64 2 -256 6q-26 0 -36 -60 q0 -70 -38 -70t-88 10q-70 14 -70 36zM272 260q24 -22 76 -22q98 -4 290 -8q12 0 30 18q20 18 22 24q-50 112 -202 448q-54 -114 -216 -460zM342 1062q2 26 96 132t126 106h78q-50 -90 -116 -166q-74 -86 -116 -86h-10q-20 6 -58 14zM594 1092q46 52 186 210h50q22 0 56 -24 q-32 -60 -114 -130t-120 -70q-20 4 -58 14z" />
<glyph unicode="&#xd6;" horiz-adv-x="1122" d="M18 504q0 126 142 302q144 174 278 174q64 6 190 16q138 0 302 -140q174 -146 174 -286v-160q0 -110 -144 -264q-148 -160 -282 -168q-82 -6 -246 -14q-154 22 -266 144q-96 104 -142 254q-2 48 -6 142zM242 642q0 -6 2 -14q4 -56 14 -170q14 -128 118 -248 q112 -124 230 -124q24 2 72 8q56 -2 130 74q76 76 76 154v152q0 102 -94 230q-100 140 -214 168q-56 12 -122 12t-144 -100q-68 -88 -68 -142zM312 1058q10 6 108 112q78 84 126 84q24 -2 60 -36q-48 -46 -194 -182q-12 0 -30 -4q-16 -4 -22 -4q-16 0 -48 30zM536 1044 q66 62 198 182q24 -2 100 -12q-10 -58 -42 -84q-12 -10 -168 -100q-12 -8 -38 -8q-2 0 -50 22z" />
<glyph unicode="&#xdc;" horiz-adv-x="1196" d="M52 324v28v86q0 62 86 218l86 158q0 24 -32 24q-8 0 -20 -8q-12 -6 -20 -6q-40 0 -40 40q0 70 40 70h328q38 0 38 -34q0 -8 -2 -14l-128 -148q-118 -144 -124 -218l6 -108q8 -124 116 -204q98 -72 222 -72q78 0 166 82t88 158v438q-12 26 -44 108q38 0 124 2q18 0 42 -2 h40q68 0 70 -6v-730q12 -38 50 -152q-10 -40 -54 -36q-112 4 -134 0q-30 -6 -54 -6t-38 28v140q-72 -36 -198 -108q-64 -38 -132 -48q-98 -12 -120 -10q-78 4 -82 4q-92 0 -190 124q-90 118 -90 202zM444 978q52 58 204 228q-6 0 68 -18q-46 -56 -188 -222q-20 4 -84 12z M656 980q2 18 96 114q104 106 142 106q16 0 30 -12q16 -10 16 -22q0 -36 -104 -124q-96 -82 -112 -82q18 0 -66 16q-2 2 -2 4z" />
<glyph unicode="&#xe7;" horiz-adv-x="2078" d="M20 408q0 6 8 102q12 122 136 268q122 144 256 184q64 10 192 28q58 -28 230 -112q-18 -30 -58 -60q-38 -32 -66 -34q-74 26 -222 76q-100 10 -168 -70q-62 -70 -74 -172q2 -68 8 -204q8 -88 62 -168q58 -90 154 -130h140q74 0 186 116q108 106 106 146q-2 50 -2 106 q0 98 12 300q12 204 12 298q-22 44 -64 132q14 42 44 42h232q18 0 20 -24q0 12 -2 -32v-436q6 -2 154 98t206 100h112q58 -4 106 -30q104 -54 154 -144q30 -54 66 -196q-14 -154 -70 -242q-14 -20 -66 -82q-40 -50 -40 -60q0 -34 128 -50q10 0 60 14q50 12 58 12 q26 0 26 -34q0 -46 -80 -100q-62 -44 -120 -64q-56 4 -164 14q-34 -6 -134 -26q-50 18 -50 46q0 20 88 162q94 150 106 226q14 372 -168 396q-58 10 -120 -6q-90 -18 -172 -122q-80 -102 -80 -180v-334q2 -18 4 -52q4 -48 2 -78q-4 -36 -14 -32h-224v178q-28 -12 -170 -96 q-112 -68 -188 -82q-50 -4 -150 -14q-284 0 -386 324q-8 48 -16 98z" />
<glyph unicode="&#x2019;" horiz-adv-x="1148" />
<glyph unicode="&#x25fc;" horiz-adv-x="1060" d="M0 0v1060h1060v-1060h-1060z" />
</font>
</defs>
</svg>
